<svg xmlns="http://www.w3.org/2000/svg" viewBox="0 0 900 1100" width="900" height="1100" role="img" aria-label="Nuestro taller"><defs><linearGradient id="g" x1="0" y1="0" x2="0" y2="1"><stop offset="0%" stop-color="#DCE8DC"/><stop offset="100%" stop-color="#BFD6C0"/></linearGradient><radialGradient id="v" cx="50%" cy="42%" r="70%"><stop offset="55%" stop-color="#FFFFFF" stop-opacity="0"/><stop offset="100%" stop-color="#000" stop-opacity="0.10"/></radialGradient></defs><rect width="900" height="1100" fill="url(#g)"/><path d="M 146 858 C 128 718 164 614 146 509" stroke="#5F8265" stroke-opacity="0.35" stroke-width="3" fill="none" stroke-linecap="round"/><path d="M 650 606 C 632 502 668 425 650 347" stroke="#5F8265" stroke-opacity="0.35" stroke-width="3" fill="none" stroke-linecap="round"/><path d="M 484 797 C 466 631 502 507 484 383" stroke="#5F8265" stroke-opacity="0.35" stroke-width="3" fill="none" stroke-linecap="round"/><path d="M 239 823 C 221 684 257 579 239 475" stroke="#5F8265" stroke-opacity="0.35" stroke-width="3" fill="none" stroke-linecap="round"/><path d="M 300 702 C 282 556 318 446 300 337" stroke="#5F8265" stroke-opacity="0.35" stroke-width="3" fill="none" stroke-linecap="round"/><path d="M 701 609 C 683 451 719 332 701 214" stroke="#5F8265" stroke-opacity="0.35" stroke-width="3" fill="none" stroke-linecap="round"/><path d="M 440 1023 C 422 912 458 828 440 745" stroke="#5F8265" stroke-opacity="0.35" stroke-width="3" fill="none" stroke-linecap="round"/><ellipse cx="609" cy="470.3" rx="17.8" ry="32.7" fill="#FFFFFF" fill-opacity="0.45" transform="rotate(0.0 609 503)"/><ellipse cx="609" cy="470.3" rx="17.8" ry="32.7" fill="#FFFFFF" fill-opacity="0.45" transform="rotate(72.0 609 503)"/><ellipse cx="609" cy="470.3" rx="17.8" ry="32.7" fill="#FFFFFF" fill-opacity="0.45" transform="rotate(144.0 609 503)"/><ellipse cx="609" cy="470.3" rx="17.8" ry="32.7" fill="#FFFFFF" fill-opacity="0.45" transform="rotate(216.0 609 503)"/><ellipse cx="609" cy="470.3" rx="17.8" ry="32.7" fill="#FFFFFF" fill-opacity="0.45" transform="rotate(288.0 609 503)"/><circle cx="609" cy="503" r="13.1" fill="#FFFFFF" fill-opacity="0.70"/><ellipse cx="646" cy="524.7" rx="22.6" ry="41.3" fill="#FFFFFF" fill-opacity="0.45" transform="rotate(0.0 646 566)"/><ellipse cx="646" cy="524.7" rx="22.6" ry="41.3" fill="#FFFFFF" fill-opacity="0.45" transform="rotate(72.0 646 566)"/><ellipse cx="646" cy="524.7" rx="22.6" ry="41.3" fill="#FFFFFF" fill-opacity="0.45" transform="rotate(144.0 646 566)"/><ellipse cx="646" cy="524.7" rx="22.6" ry="41.3" fill="#FFFFFF" fill-opacity="0.45" transform="rotate(216.0 646 566)"/><ellipse cx="646" cy="524.7" rx="22.6" ry="41.3" fill="#FFFFFF" fill-opacity="0.45" transform="rotate(288.0 646 566)"/><circle cx="646" cy="566" r="16.5" fill="#FFFFFF" fill-opacity="0.70"/><ellipse cx="561" cy="603.7" rx="26.3" ry="48.3" fill="#FFFFFF" fill-opacity="0.45" transform="rotate(0.0 561 652)"/><ellipse cx="561" cy="603.7" rx="26.3" ry="48.3" fill="#FFFFFF" fill-opacity="0.45" transform="rotate(60.0 561 652)"/><ellipse cx="561" cy="603.7" rx="26.3" ry="48.3" fill="#FFFFFF" fill-opacity="0.45" transform="rotate(120.0 561 652)"/><ellipse cx="561" cy="603.7" rx="26.3" ry="48.3" fill="#FFFFFF" fill-opacity="0.45" transform="rotate(180.0 561 652)"/><ellipse cx="561" cy="603.7" rx="26.3" ry="48.3" fill="#FFFFFF" fill-opacity="0.45" transform="rotate(240.0 561 652)"/><ellipse cx="561" cy="603.7" rx="26.3" ry="48.3" fill="#FFFFFF" fill-opacity="0.45" transform="rotate(300.0 561 652)"/><circle cx="561" cy="652" r="19.3" fill="#FFFFFF" fill-opacity="0.70"/><ellipse cx="584" cy="363.5" rx="25.4" ry="46.5" fill="#FFFFFF" fill-opacity="0.45" transform="rotate(0.0 584 410)"/><ellipse cx="584" cy="363.5" rx="25.4" ry="46.5" fill="#FFFFFF" fill-opacity="0.45" transform="rotate(45.0 584 410)"/><ellipse cx="584" cy="363.5" rx="25.4" ry="46.5" fill="#FFFFFF" fill-opacity="0.45" transform="rotate(90.0 584 410)"/><ellipse cx="584" cy="363.5" rx="25.4" ry="46.5" fill="#FFFFFF" fill-opacity="0.45" transform="rotate(135.0 584 410)"/><ellipse cx="584" cy="363.5" rx="25.4" ry="46.5" fill="#FFFFFF" fill-opacity="0.45" transform="rotate(180.0 584 410)"/><ellipse cx="584" cy="363.5" rx="25.4" ry="46.5" fill="#FFFFFF" fill-opacity="0.45" transform="rotate(225.0 584 410)"/><ellipse cx="584" cy="363.5" rx="25.4" ry="46.5" fill="#FFFFFF" fill-opacity="0.45" transform="rotate(270.0 584 410)"/><ellipse cx="584" cy="363.5" rx="25.4" ry="46.5" fill="#FFFFFF" fill-opacity="0.45" transform="rotate(315.0 584 410)"/><circle cx="584" cy="410" r="18.6" fill="#FFFFFF" fill-opacity="0.70"/><ellipse cx="291" cy="367.0" rx="18.5" ry="34.0" fill="#FFFFFF" fill-opacity="0.45" transform="rotate(0.0 291 401)"/><ellipse cx="291" cy="367.0" rx="18.5" ry="34.0" fill="#FFFFFF" fill-opacity="0.45" transform="rotate(45.0 291 401)"/><ellipse cx="291" cy="367.0" rx="18.5" ry="34.0" fill="#FFFFFF" fill-opacity="0.45" transform="rotate(90.0 291 401)"/><ellipse cx="291" cy="367.0" rx="18.5" ry="34.0" fill="#FFFFFF" fill-opacity="0.45" transform="rotate(135.0 291 401)"/><ellipse cx="291" cy="367.0" rx="18.5" ry="34.0" fill="#FFFFFF" fill-opacity="0.45" transform="rotate(180.0 291 401)"/><ellipse cx="291" cy="367.0" rx="18.5" ry="34.0" fill="#FFFFFF" fill-opacity="0.45" transform="rotate(225.0 291 401)"/><ellipse cx="291" cy="367.0" rx="18.5" ry="34.0" fill="#FFFFFF" fill-opacity="0.45" transform="rotate(270.0 291 401)"/><ellipse cx="291" cy="367.0" rx="18.5" ry="34.0" fill="#FFFFFF" fill-opacity="0.45" transform="rotate(315.0 291 401)"/><circle cx="291" cy="401" r="13.6" fill="#FFFFFF" fill-opacity="0.70"/><ellipse cx="361" cy="355.3" rx="22.2" ry="40.7" fill="#FFFFFF" fill-opacity="0.45" transform="rotate(0.0 361 396)"/><ellipse cx="361" cy="355.3" rx="22.2" ry="40.7" fill="#FFFFFF" fill-opacity="0.45" transform="rotate(60.0 361 396)"/><ellipse cx="361" cy="355.3" rx="22.2" ry="40.7" fill="#FFFFFF" fill-opacity="0.45" transform="rotate(120.0 361 396)"/><ellipse cx="361" cy="355.3" rx="22.2" ry="40.7" fill="#FFFFFF" fill-opacity="0.45" transform="rotate(180.0 361 396)"/><ellipse cx="361" cy="355.3" rx="22.2" ry="40.7" fill="#FFFFFF" fill-opacity="0.45" transform="rotate(240.0 361 396)"/><ellipse cx="361" cy="355.3" rx="22.2" ry="40.7" fill="#FFFFFF" fill-opacity="0.45" transform="rotate(300.0 361 396)"/><circle cx="361" cy="396" r="16.3" fill="#FFFFFF" fill-opacity="0.70"/><ellipse cx="450" cy="423.5" rx="45.0" ry="82.5" fill="#FFFFFF" fill-opacity="0.85" transform="rotate(0.0 450 506)"/><ellipse cx="450" cy="423.5" rx="45.0" ry="82.5" fill="#FFFFFF" fill-opacity="0.85" transform="rotate(60.0 450 506)"/><ellipse cx="450" cy="423.5" rx="45.0" ry="82.5" fill="#FFFFFF" fill-opacity="0.85" transform="rotate(120.0 450 506)"/><ellipse cx="450" cy="423.5" rx="45.0" ry="82.5" fill="#FFFFFF" fill-opacity="0.85" transform="rotate(180.0 450 506)"/><ellipse cx="450" cy="423.5" rx="45.0" ry="82.5" fill="#FFFFFF" fill-opacity="0.85" transform="rotate(240.0 450 506)"/><ellipse cx="450" cy="423.5" rx="45.0" ry="82.5" fill="#FFFFFF" fill-opacity="0.85" transform="rotate(300.0 450 506)"/><circle cx="450" cy="506" r="33.0" fill="#FFFFFF" fill-opacity="1.00"/><ellipse cx="450" cy="423.5" rx="45.0" ry="82.5" fill="#5F8265" fill-opacity="0.0" transform="rotate(0.0 450 506)"/><ellipse cx="450" cy="423.5" rx="45.0" ry="82.5" fill="#5F8265" fill-opacity="0.0" transform="rotate(60.0 450 506)"/><ellipse cx="450" cy="423.5" rx="45.0" ry="82.5" fill="#5F8265" fill-opacity="0.0" transform="rotate(120.0 450 506)"/><ellipse cx="450" cy="423.5" rx="45.0" ry="82.5" fill="#5F8265" fill-opacity="0.0" transform="rotate(180.0 450 506)"/><ellipse cx="450" cy="423.5" rx="45.0" ry="82.5" fill="#5F8265" fill-opacity="0.0" transform="rotate(240.0 450 506)"/><ellipse cx="450" cy="423.5" rx="45.0" ry="82.5" fill="#5F8265" fill-opacity="0.0" transform="rotate(300.0 450 506)"/><circle cx="450" cy="506" r="33.0" fill="#5F8265" fill-opacity="0.25"/><rect width="900" height="1100" fill="url(#v)"/><text x="450" y="982" text-anchor="middle" font-family="Georgia, serif" font-size="46" fill="#5F8265" fill-opacity="0.85" letter-spacing="2">Nuestro taller</text><text x="450" y="1030" text-anchor="middle" font-family="Helvetica, Arial, sans-serif" font-size="21" fill="#5F8265" fill-opacity="0.55" letter-spacing="4">IMAGEN DE EJEMPLO — CAMBIAR EN EL PANEL</text></svg>